<?xml version="1.0" standalone="no"?><!DOCTYPE svg PUBLIC "-//W3C//DTD SVG 1.1//EN" "http://www.w3.org/Graphics/SVG/1.1/DTD/svg11.dtd"><svg t="1508696111088" class="icon" style="" viewBox="0 0 1024 1024" version="1.1" xmlns="http://www.w3.org/2000/svg" p-id="3841" xmlns:xlink="http://www.w3.org/1999/xlink" width="200" height="200"><defs><style type="text/css"></style></defs><path d="M319.183568 567.240649C318.519351 568.12627 317.855135 569.039568 317.550703 570.146595L266.018595 765.453838C263.029622 776.828541 266.101622 789.088865 274.23827 797.723676 280.326919 803.867676 288.352865 807.244108 296.904649 807.244108 299.727568 807.244108 302.550486 806.912 305.318054 806.137081L492.876108 753.248865C493.180541 753.248865 493.318919 753.525622 493.540324 753.525622 495.699027 753.525622 497.830054 752.723027 499.407568 751.007135L1000.946162 232.558703C1015.835676 217.143351 1024 196.137514 1024 173.277405 1024 147.372973 1013.372541 121.496216 994.774486 102.289297L947.421405 53.248C928.823351 34.013405 903.749189 22.998486 878.730378 22.998486 856.617514 22.998486 836.303568 31.439568 821.358703 46.827243L319.930811 565.44173C319.404973 565.939892 319.543351 566.659459 319.183568 567.240649M951.849514 181.773838 902.033297 233.250595 821.303351 148.424649 870.4 97.667459C878.149189 89.586162 893.204757 90.776216 902.116324 100.019892L949.524757 149.061189C954.451027 154.181189 957.273946 160.96173 957.273946 167.686919 957.24627 173.194378 955.364324 178.203676 951.849514 181.773838M408.354595 575.377297 770.24173 201.202162 851.054703 286.083459 489.831784 659.539027 408.354595 575.377297 408.354595 575.377297 408.354595 575.377297ZM342.431135 727.095351 368.584649 627.850378 438.355027 699.973189 342.431135 727.095351 342.431135 727.095351 342.431135 727.095351ZM983.621189 387.238054C964.635676 387.238054 949.081946 403.206919 948.998919 423.10573L948.998919 906.461405C948.998919 931.812324 929.100108 952.403027 904.551784 952.403027L113.691676 952.403027C89.171027 952.403027 69.189189 931.812324 69.189189 906.461405L69.189189 117.510919C69.189189 92.132324 89.171027 71.541622 113.691676 71.541622L623.034811 71.541622C642.131027 71.541622 657.629405 55.48973 657.629405 35.756973 657.629405 16.051892 642.131027 0 623.034811 0L108.405622 0C48.653838 0 0 50.259027 0 112.086486L0 911.941189C0 973.768649 48.653838 1024 108.405622 1024L909.782486 1024C969.589622 1024 1018.188108 973.768649 1018.188108 911.941189L1018.188108 422.856649C1018.132757 403.206919 1002.606703 387.238054 983.621189 387.238054" p-id="3842"></path></svg>