<?xml version="1.0" standalone="no"?><!DOCTYPE svg PUBLIC "-//W3C//DTD SVG 1.1//EN" "http://www.w3.org/Graphics/SVG/1.1/DTD/svg11.dtd"><svg t="1508696022556" class="icon" style="" viewBox="0 0 1024 1024" version="1.1" xmlns="http://www.w3.org/2000/svg" p-id="3182" xmlns:xlink="http://www.w3.org/1999/xlink" width="20" height="20"><defs><style type="text/css"></style></defs><path d="M303.630982 694.639402a38.188305 38.188305 0 1 0 11.216529-27.026625 39.257852 39.257852 0 0 0-11.189105 27.067761m0 0zM623.370622 694.639402a38.188305 38.188305 0 1 0 11.230242-27.026625 38.544821 38.544821 0 0 0-11.230242 27.026625m0 0z" fill="" p-id="3183"></path><path d="M966.078095 428.815889s-11.339938-96.76656-63.212958-152.849206c0 0 36.474288-19.608358-2.742427-53.326505 0 0-35.007089-8.432965-42.137401-5.676826 0 0-18.154871-61.704622-54.629159-77.158202 0 0-30.962008-7.459403-37.927775 22.529043 0 0-82.012299-41.657476-141.344721-52.188398 0 0-151.382007-29.17943-192.065922-99.5227 0 0-8.748344-17.82578-37.447849-7.294857 0 0-27.424277 21.720027-18.963888 108.764681 0 0 2.262503 17.82578-114.592339-57.056208 0 0-29.014885-7.459403-37.44785 14.918807 0 0-14.905094 53.326506 3.729702 92.543221 0 0-67.27175 12.162667-96.272923 41.136415 0 0-32.744586 42.137401 22.364497 48.623242 0 0-82.176845 46.62127-96.272923 178.614314 0 0-1.618032 92.556933 28.041323 195.151152a115.552189 115.552189 0 0 0-6.856069 53.806431 117.211358 117.211358 0 0 0 100.797929 103.636341 350.715361 350.715361 0 0 0 667.026967-3.414323 117.430752 117.430752 0 0 0 101.305278-97.740121 115.949841 115.949841 0 0 0-10.969711-71.152286c18.154871-54.300068 34.198073-121.242727 29.659355-182.371439M171.528241 765.476308a101.181868 101.181868 0 0 1-77.309035-87.524578 96.492317 96.492317 0 0 1 0.164545-22.693589 490.030686 490.030686 0 0 0 27.232307 64.351065s22.199952 22.199952 45.058086 13.945244c0.973562 5.676825 2.111669 11.189105 3.236065 16.687673l1.618032 15.234185m340.376409 242.307196c-159.170501 0-292.562183-111.8362-326.115785-260.955704l-2.742428-25.285183a70.562664 70.562664 0 0 0 7.623949-11.189105s2.920685-103.896872 64.666445-165.491797c0 0 54.300068 15.083352 123.505229-23.310635 0 0-29.014885 35.500726-55.273629 54.300068 0 0-14.918806 36.474288 18.634796 40.190277 0 0 103.732326 19.608358 207.629198-48.623242 0 0-5.676825 34.527164 43.878842 24.311621 0 0 40.190277-0.973562 104.705888-50.570366 0 0 14.096078 23.310635 66.778114-5.676825 0 0-1.302653 46.196194 40.683914 117.842116 0 0 18.319417 29.823901 18.319417 82.176845a74.347214 74.347214 0 0 0 11.998121 7.459403L831.822549 769.864193c-41.287248 137.436762-169.015817 237.919312-319.917899 237.919311m419.317189-328.062909a101.291566 101.291566 0 0 1-80.229721 83.164119c1.302653-4.867809 2.427048-9.886452 3.565156-14.918806 12.642592 0.64447 26.574124-5.183188 35.816105-28.685794a766.727925 766.727925 0 0 0 37.763229-85.262075 102.841037 102.841037 0 0 1 3.085231 45.702556m0 0z" fill="" p-id="3184"></path></svg>