<?xml version="1.0" standalone="no"?><!DOCTYPE svg PUBLIC "-//W3C//DTD SVG 1.1//EN" "http://www.w3.org/Graphics/SVG/1.1/DTD/svg11.dtd"><svg t="1508696072417" class="icon" style="" viewBox="0 0 1024 1024" version="1.1" xmlns="http://www.w3.org/2000/svg" p-id="3622" xmlns:xlink="http://www.w3.org/1999/xlink" width="200" height="200"><defs><style type="text/css"></style></defs><path d="M512 627.2c-64 0-115.2-51.2-115.2-115.2s51.2-115.2 115.2-115.2 115.2 51.2 115.2 115.2S576 627.2 512 627.2zM512 448c-35.84 0-64 28.16-64 64s28.16 64 64 64 64-28.16 64-64S547.84 448 512 448z" p-id="3623"></path><path d="M153.6 627.2c-64 0-115.2-51.2-115.2-115.2s51.2-115.2 115.2-115.2 115.2 51.2 115.2 115.2S215.04 627.2 153.6 627.2zM153.6 448c-35.84 0-64 28.16-64 64s28.16 64 64 64 64-28.16 64-64S186.88 448 153.6 448z" p-id="3624"></path><path d="M870.4 627.2c-64 0-115.2-51.2-115.2-115.2s51.2-115.2 115.2-115.2 115.2 51.2 115.2 115.2S934.4 627.2 870.4 627.2zM870.4 448c-35.84 0-64 28.16-64 64s28.16 64 64 64 64-28.16 64-64S906.24 448 870.4 448z" p-id="3625"></path></svg>