<?xml version="1.0" standalone="no"?><!DOCTYPE svg PUBLIC "-//W3C//DTD SVG 1.1//EN" "http://www.w3.org/Graphics/SVG/1.1/DTD/svg11.dtd"><svg t="1508781821116" class="icon" style="" viewBox="0 0 1024 1024" version="1.1" xmlns="http://www.w3.org/2000/svg" p-id="3025" xmlns:xlink="http://www.w3.org/1999/xlink" width="20" height="20"><defs><style type="text/css"></style></defs><path d="M506.267 113.705c104.732 0 189.644 83.508 189.644 186.53 0 103.014-84.904 186.545-189.644 186.545-104.732 0-189.636-83.531-189.636-186.545-0.016-103.022 84.904-186.53 189.636-186.53z" p-id="3026" fill="#8b8b8b"></path><path d="M506.267 113.705c104.732 0 189.644 83.508 189.644 186.53 0 103.014-84.904 186.545-189.644 186.545-104.732 0-189.636-83.531-189.636-186.545-0.016-103.022 84.904-186.53 189.636-186.53z m-71.121 435.274h158.057c135.291 0 244.963 107.869 244.963 240.944v15.533c0 52.443-109.687 54.445-244.963 54.445H435.146c-135.291 0-244.979-0.054-244.979-54.445v-15.533c0.001-133.074 109.688-240.944 244.979-240.944z" p-id="3027" fill="#8b8b8b"></path></svg>